<?xml version="1.0" encoding="UTF-8" standalone="no"?>
<!-- Created with Inkscape (http://www.inkscape.org/) -->

<svg
   width="1920"
   height="1080"
   viewBox="0 0 507.99999 285.75001"
   version="1.1"
   id="svg5"
   xmlns="http://www.w3.org/2000/svg"
   xmlns:svg="http://www.w3.org/2000/svg">
  <defs
     id="defs2" />
  <g
     id="layer1">
    <rect
       style="fill:#d35f5f;stroke-width:0.0531036"
       id="rect916"
       width="512.23334"
       height="285.6412"
       x="0"
       y="0" />
    <path
       style="fill:#00ff66;stroke-width:0.2"
       id="path1276"
       d="m 12.700001,105.83333 a 55.033333,42.333332 0 0 1 -0.0023,0.38278" />
    <path
       style="fill:#00ff66;stroke-width:0.2"
       id="path1278"
       d="m 12.700001,137.58333 a 40.216667,10.583333 0 0 1 -0.0016,0.0957" />
    <path
       style="fill:#ffe680;stroke-width:0.2"
       id="path1326"
       d="M 95.999997,288 62.960726,245.06296 8.8597491,247.93826 39.485603,203.24777 20.03291,152.6832 72,168 l 42.07855,-34.12592 1.49157,54.15679 45.45867,29.47359 -51.04524,18.15394 z"
       transform="scale(0.26458333)" />
    <path
       style="fill:#ffe680;stroke-width:0.2"
       id="path1328"
       d="m 1824,240 -47.3927,-24.00461 -46.6421,25.43241 8.1846,-52.49099 L 1699.5489,152.4366 1752,144 l 22.7854,-47.99078 24.232,47.27688 52.683,6.84028 -37.4749,37.65532 z"
       transform="scale(0.26458333)" />
    <path
       style="fill:#ffe680;stroke-width:0.2"
       id="path1330"
       d="m 432,800 57.04389,-4.45568 28.66856,-49.51738 21.86514,52.87507 55.9529,11.96371 L 552,848 l 5.91223,56.91136 -48.76846,-29.92483 -52.29894,23.20945 13.38993,-55.62884 z"
       transform="scale(0.26458333)" />
    <path
       style="fill:#ffdd55;stroke-width:0.2"
       id="path1332"
       d="m 1472,656 -56.9206,-19.30233 -48.1699,35.94703 0.7681,-60.09944 -49.0729,-34.70409 L 1376,560 l 17.8412,-57.39534 34.7041,49.07299 60.0994,-0.76818 -35.947,48.16995 z"
       transform="scale(0.26458333)" />
    <path
       style="fill:#c8ab37;stroke-width:0.2"
       id="path1399"
       d="M 101.60019,148.27957 A 33.866764,33.866764 0 0 1 67.761646,182.14632 33.866764,33.866764 0 0 1 33.866704,148.33602 33.866764,33.866764 0 0 1 67.648748,114.41291 33.866764,33.866764 0 0 1 101.6,148.16667" />
    <path
       style="fill:#b3b3b3;stroke:#000000;stroke-width:0.145977px;stroke-linecap:butt;stroke-linejoin:miter;stroke-opacity:1"
       d="m 59.558693,115.58062 c 0,0 5.422159,-1.16782 8.174735,-1.16782 2.752576,0 8.174738,1.16782 8.174738,1.16782 v -8.17473 H 59.558694 Z"
       id="path1630" />
    <path
       style="fill:#c8ab37;stroke-width:0.2"
       id="path1399-3"
       d="m 499.24149,223.19896 a 33.866764,33.866764 0 0 1 -33.83854,33.86675 33.866764,33.866764 0 0 1 -33.89494,-33.8103 33.866764,33.866764 0 0 1 33.78204,-33.92311 33.866764,33.866764 0 0 1 33.95125,33.75376" />
    <path
       style="fill:#b3b3b3;stroke:#000000;stroke-width:0.145977px;stroke-linecap:butt;stroke-linejoin:miter;stroke-opacity:1"
       d="m 457.2,190.5 c 0,0 5.42216,-1.16782 8.17474,-1.16782 2.75257,0 8.17474,1.16782 8.17474,1.16782 v -8.17473 H 457.2 Z"
       id="path1630-6" />
  </g>
</svg>
